<svg xmlns="http://www.w3.org/2000/svg" viewBox="0 0 1200 760" role="img" aria-label="Network cabinet product placeholder"><defs><linearGradient id="bg" x1="0" x2="1" y1="0" y2="1"><stop stop-color="#edf7ff"/><stop offset="1" stop-color="#ffffff"/></linearGradient><pattern id="grid" width="48" height="48" patternUnits="userSpaceOnUse"><path d="M48 0H0v48" fill="none" stroke="#b9d8f6" stroke-opacity=".45"/></pattern></defs><rect width="1200" height="760" fill="url(#bg)"/><rect width="1200" height="760" fill="url(#grid)"/><rect x="420" y="80" width="360" height="610" rx="22" fill="#071326"/><rect x="455" y="120" width="290" height="520" rx="10" fill="#0d1f36" stroke="#8aa1ba" stroke-width="8"/><g fill="#748397"><rect x="492" y="165" width="216" height="34" rx="17"/><rect x="492" y="220" width="216" height="34" rx="17"/><rect x="492" y="275" width="216" height="34" rx="17"/><rect x="492" y="330" width="216" height="34" rx="17"/><rect x="492" y="385" width="216" height="34" rx="17"/><rect x="492" y="440" width="216" height="34" rx="17"/><rect x="492" y="495" width="216" height="34" rx="17"/><rect x="492" y="550" width="216" height="34" rx="17"/></g><text x="70" y="110" font-family="Arial, sans-serif" font-size="34" font-weight="700" fill="#071326">Network Cabinet</text><text x="70" y="158" font-family="Arial, sans-serif" font-size="20" fill="#53677f">Replace with real product photo</text><rect x="70" y="600" width="330" height="54" rx="27" fill="#0f63ff"/><text x="96" y="635" font-family="Arial, sans-serif" font-size="20" font-weight="700" fill="#fff">6U to 47U / OEM ready</text></svg>
